<svg width="43" height="43" viewBox="0 0 43 43" fill="none" xmlns="http://www.w3.org/2000/svg">
<path d="M38.3929 0H4.60714C3.38525 0 2.21341 0.485394 1.3494 1.3494C0.485394 2.21341 0 3.38525 0 4.60714L0 38.3929C0 39.6147 0.485394 40.7866 1.3494 41.6506C2.21341 42.5146 3.38525 43 4.60714 43H17.7807V28.381H11.7338V21.5H17.7807V16.2555C17.7807 10.2902 21.332 6.99518 26.7713 6.99518C29.3763 6.99518 32.1003 7.45973 32.1003 7.45973V13.3146H29.0989C26.1417 13.3146 25.2193 15.1498 25.2193 17.032V21.5H31.821L30.7652 28.381H25.2193V43H38.3929C39.6147 43 40.7866 42.5146 41.6506 41.6506C42.5146 40.7866 43 39.6147 43 38.3929V4.60714C43 3.38525 42.5146 2.21341 41.6506 1.3494C40.7866 0.485394 39.6147 0 38.3929 0Z" fill="white"/>
</svg>
