<svg width="43" height="43" viewBox="0 0 43 43" fill="none" xmlns="http://www.w3.org/2000/svg">
<path d="M21.5 16.3803C20.4875 16.3807 19.4979 16.6813 18.6562 17.2441C17.8145 17.8069 17.1586 18.6066 16.7714 19.5421C16.3842 20.4776 16.2831 21.507 16.4808 22.5C16.6786 23.493 17.1664 24.405 17.8824 25.1208C18.5985 25.8367 19.5108 26.3241 20.5038 26.5215C21.4969 26.7188 22.5262 26.6173 23.4616 26.2298C24.397 25.8422 25.1964 25.186 25.7589 24.3441C26.3214 23.5023 26.6216 22.5125 26.6216 21.5C26.6206 20.1422 26.0806 18.8402 25.1203 17.8803C24.16 16.9203 22.8578 16.3808 21.5 16.3803ZM33.4699 12.445C33.2093 11.7845 32.8157 11.1846 32.3136 10.6825C31.8115 10.1804 31.2116 9.78686 30.5511 9.52623C28.5355 8.73054 23.7364 8.90906 21.5 8.90906C19.2636 8.90906 14.4693 8.72382 12.4479 9.52623C11.7874 9.78686 11.1875 10.1804 10.6854 10.6825C10.1833 11.1846 9.78974 11.7845 9.52911 12.445C8.73438 14.4607 8.91194 19.2646 8.91194 21.499C8.91194 23.7335 8.73438 28.5317 9.53295 30.554C9.79358 31.2145 10.1872 31.8144 10.6892 32.3165C11.1913 32.8186 11.7913 33.2122 12.4518 33.4728C14.4674 34.2685 19.2665 34.09 21.5038 34.09C23.7412 34.09 28.5336 34.2752 30.555 33.4728C31.2155 33.2122 31.8154 32.8186 32.3175 32.3165C32.8196 31.8144 33.2131 31.2145 33.4738 30.554C34.2752 28.5384 34.0909 23.7345 34.0909 21.5C34.0909 19.2655 34.2752 14.4683 33.4738 12.446L33.4699 12.445ZM21.5 29.3705C19.9434 29.3705 18.4217 28.9089 17.1274 28.0441C15.8331 27.1793 14.8243 25.9501 14.2286 24.5119C13.6329 23.0738 13.477 21.4913 13.7807 19.9645C14.0844 18.4378 14.834 17.0354 15.9347 15.9347C17.0354 14.834 18.4378 14.0844 19.9645 13.7807C21.4913 13.477 23.0738 13.6329 24.5119 14.2286C25.9501 14.8243 27.1793 15.8331 28.0441 17.1274C28.9089 18.4217 29.3705 19.9434 29.3705 21.5C29.3718 22.5339 29.1691 23.5579 28.774 24.5134C28.3789 25.4689 27.7992 26.337 27.0681 27.0681C26.337 27.7992 25.4689 28.3789 24.5134 28.774C23.5579 29.1691 22.5339 29.3718 21.5 29.3705ZM29.695 15.1364C29.3316 15.1366 28.9763 15.029 28.6741 14.8272C28.3718 14.6255 28.1362 14.3386 27.997 14.003C27.8578 13.6673 27.8213 13.2979 27.8921 12.9415C27.9629 12.585 28.1377 12.2576 28.3946 12.0006C28.6515 11.7436 28.9789 11.5685 29.3352 11.4976C29.6916 11.4266 30.0611 11.4629 30.3968 11.6019C30.7325 11.741 31.0195 11.9764 31.2214 12.2785C31.4233 12.5807 31.5311 12.9359 31.5311 13.2993C31.5321 13.5406 31.4855 13.7797 31.3938 14.003C31.3022 14.2262 31.1674 14.4292 30.9972 14.6002C30.827 14.7713 30.6246 14.907 30.4018 14.9997C30.179 15.0923 29.9401 15.1401 29.6988 15.1402L29.695 15.1364ZM38.3929 0H4.60714C3.38525 0 2.21341 0.485394 1.3494 1.3494C0.485394 2.21341 0 3.38525 0 4.60714L0 38.3929C0 39.6147 0.485394 40.7866 1.3494 41.6506C2.21341 42.5146 3.38525 43 4.60714 43H38.3929C39.6147 43 40.7866 42.5146 41.6506 41.6506C42.5146 40.7866 43 39.6147 43 38.3929V4.60714C43 3.38525 42.5146 2.21341 41.6506 1.3494C40.7866 0.485394 39.6147 0 38.3929 0ZM36.7496 27.8348C36.6258 30.2948 36.0643 32.4746 34.2685 34.2656C32.4727 36.0567 30.2948 36.6297 27.8377 36.7468C25.3028 36.8898 17.7029 36.8898 15.1681 36.7468C12.708 36.6229 10.536 36.0605 8.73725 34.2656C6.93855 32.4708 6.37321 30.29 6.25612 27.8348C6.1131 25.299 6.1131 17.6981 6.25612 15.1652C6.37993 12.7052 6.93471 10.5254 8.73725 8.73438C10.5398 6.94335 12.7176 6.37705 15.1681 6.25996C17.7029 6.11694 25.3028 6.11694 27.8377 6.25996C30.2977 6.38377 32.4765 6.94623 34.2685 8.74109C36.0605 10.536 36.6325 12.7167 36.7496 15.1767C36.8927 17.7029 36.8927 25.2971 36.7496 27.8348Z" fill="white"/>
</svg>
